<svg width="30" height="30" viewBox="0 0 30 30" fill="none" xmlns="http://www.w3.org/2000/svg">
<path d="M29.9912 0H0.00878906C0.003935 0 0 0.003935 0 0.00878906V29.9912C0 29.9961 0.003935 30 0.00878906 30H29.9912C29.9961 30 30 29.9961 30 29.9912V0.00878906C30 0.003935 29.9961 0 29.9912 0Z" fill="#1A1A1A"/>
<path d="M20.9883 16.4766L21.6562 12.1406H17.4961V9.32812C17.4961 8.14453 18.0762 6.98438 19.9395 6.98438H21.832V3.29297C21.832 3.29297 20.1152 3 18.4746 3C15.0469 3 12.8086 5.07422 12.8086 8.83594V12.1406H9V16.4766H12.8086V27.1406H17.4961V16.4766H20.9883Z" fill="white"/>
</svg>
