<svg width="30" height="29" viewBox="0 0 30 29" fill="none" xmlns="http://www.w3.org/2000/svg">
<path d="M29.9912 0H0.00878906C0.003935 0 0 0.00380383 0 0.00849609V28.9915C0 28.9962 0.003935 29 0.00878906 29H29.9912C29.9961 29 30 28.9962 30 28.9915V0.00849609C30 0.00380383 29.9961 0 29.9912 0Z" fill="#1A1A1A"/>
<path d="M20.6688 24.2383C21.4891 24.2383 21.3719 25.2012 21.3719 25.2012H10.7078C10.7078 25.2012 10.5906 24.2383 11.4109 24.2383C12.1727 24.2383 12.3484 23.8985 12.3484 23.5586L12.2899 20.7266C8.12969 21.6328 7.25079 19.1406 7.25079 19.1406C6.54766 17.4414 5.61016 17.0449 5.61016 17.0449C4.20391 16.1387 5.66876 16.1387 5.66876 16.1387C7.19219 16.252 8.01251 17.6114 8.01251 17.6114C9.30157 19.8203 11.4695 19.1973 12.3484 18.8574C12.4656 17.8946 12.8758 17.2715 13.2859 16.875C9.9461 16.5352 6.48907 15.2891 6.48907 9.7383C6.48907 8.15237 7.07501 6.84963 8.01251 5.8301C7.83673 5.49026 7.36798 4.0176 8.18829 2.03518C8.18829 2.03518 9.41876 1.63869 12.2899 3.50784C14.7508 2.82815 17.3289 2.82815 19.7899 3.50784C22.6609 1.63869 23.8914 2.03518 23.8914 2.03518C24.7117 4.0176 24.243 5.49026 24.0672 5.8301C25.0047 6.84963 25.5906 8.15237 25.5906 9.7383C25.5906 15.2891 22.075 16.5352 18.7352 16.875C19.3211 17.3281 19.7899 18.2344 19.7899 19.5938L19.7313 23.5586C19.7313 23.8985 19.907 24.2383 20.6688 24.2383Z" fill="white"/>
</svg>
