<svg width="330" height="285" viewBox="0 0 330 285" fill="none" xmlns="http://www.w3.org/2000/svg">
<g clip-path="url(#clip0_92_243)">
<path opacity="0.1" d="M188.412 45.071C167.623 44.253 147.823 36.6588 128.913 28.3484C110.003 20.038 91.2797 10.8333 70.9885 6.42728C57.9376 3.59535 43.0139 3.19546 32.4974 11.1132C22.3791 18.7475 19.1091 31.8892 17.3489 44.0967C16.0287 53.2796 15.2513 62.946 18.8746 71.5436C21.3898 77.5128 25.8579 82.5296 28.9479 88.2443C39.6958 108.137 32.0991 132.683 20.455 152.092C14.9944 161.206 8.65359 169.905 4.43604 179.597C0.21849 189.289 -1.73128 200.409 1.95626 210.305C5.6149 220.12 14.3295 227.478 23.77 232.658C42.9401 243.201 65.5279 246.193 87.5664 247.898C136.333 251.675 185.363 250.039 234.259 248.403C252.356 247.796 270.53 247.182 288.335 244.015C298.219 242.259 308.427 239.467 315.603 232.746C324.713 224.192 326.971 209.708 320.868 198.981C310.628 180.989 282.322 176.521 275.156 157.214C271.215 146.584 275.262 134.748 280.986 124.889C293.269 103.745 313.856 85.1943 314.941 61.0265C315.687 44.4275 305.79 27.8031 290.487 19.9471C274.446 11.7167 252.205 12.7528 240.378 26.378C228.178 40.3923 206.76 45.798 188.412 45.071Z" fill="#7ECA9C"/>
<path opacity="0.1" d="M186.237 274.163C252.05 274.163 305.401 269.674 305.401 264.137C305.401 258.599 252.05 254.111 186.237 254.111C120.424 254.111 67.0728 258.599 67.0728 264.137C67.0728 269.674 120.424 274.163 186.237 274.163Z" fill="#7ECA9C"/>
<path d="M94.0967 231.662C94.0967 231.662 100.842 230.441 104.889 235.839C104.889 235.839 101.921 238.486 95.5357 234.821L94.0967 231.662Z" fill="#7ECA9C"/>
<path d="M93.3708 231.564C93.3708 231.564 89.0697 237.57 91.1801 244.233C91.1801 244.233 94.6878 242.641 95.07 234.549L93.3708 231.564Z" fill="#7ECA9C"/>
<path d="M89.5161 221.687C89.5161 221.687 92.2143 216.088 103.007 223.926C103.007 223.926 101.568 227.692 96.8013 227.387C92.0344 227.082 90.7689 224.657 89.5161 221.687Z" fill="#7ECA9C"/>
<path d="M88.8125 221.283C88.8125 221.283 83.2138 220.556 82.6709 235.065C82.6709 235.065 86.2203 235.897 88.7419 231.31C91.2634 226.722 90.2227 224.148 88.8125 221.283Z" fill="#7ECA9C"/>
<path d="M85.5522 209.716C85.5522 209.716 88.7001 199.842 100.123 206.866C100.123 206.866 97.5143 215.925 86.7215 213.075L85.5522 209.716Z" fill="#7ECA9C"/>
<path d="M82.0415 194.956C82.0415 194.956 87.9808 184.977 98.5038 194.229C98.5038 194.229 94.8162 203.594 82.9409 198.504L82.0415 194.956Z" fill="#7ECA9C"/>
<path d="M80.7822 180.906C80.7822 180.906 87.7108 171.745 98.1439 180.906C98.1439 180.906 91.5783 188.947 80.7822 183.247V180.906Z" fill="#7ECA9C"/>
<path d="M79.7031 167.266C79.7031 167.266 86.7217 157.697 96.705 166.757C96.705 166.757 88.7903 175.205 79.7031 169.505V167.266Z" fill="#7ECA9C"/>
<path d="M80.3325 155.153C80.3325 155.153 87.7205 142.833 97.0646 151.183C97.0646 151.183 89.1499 161.769 80.3325 157.494V155.153Z" fill="#7ECA9C"/>
<path d="M82.0415 141C82.0415 141 89.8695 128.786 98.9535 138.15C98.9535 138.15 89.6896 148.74 82.0415 143.24V141Z" fill="#7ECA9C"/>
<path d="M84.653 128.353C84.653 128.353 93.9168 116.876 101.999 121.446C101.999 121.446 92.3429 133.635 84.2483 131.396L84.653 128.353Z" fill="#7ECA9C"/>
<path d="M87.8909 116.367C87.8909 116.367 98.5938 102.32 104.8 107.003C104.8 107.003 96.9234 117.909 87.1328 118.999L87.8909 116.367Z" fill="#7ECA9C"/>
<path d="M92.5643 102.462C92.5643 102.462 101.921 90.9817 108.757 93.8319C108.757 93.8319 100.752 105.741 91.3083 106.047L92.5643 102.462Z" fill="#7ECA9C"/>
<path d="M96.7949 89.4549C96.7949 89.4549 107.138 78.458 111.635 80.392C111.635 80.392 104.17 92.6104 96.3452 91.8978L96.7949 89.4549Z" fill="#7ECA9C"/>
<path d="M100.932 77.4255C100.932 77.4255 109.836 64.2947 114.693 65.3126C114.693 65.3126 109.297 77.0184 100.932 78.7634V77.4255Z" fill="#7ECA9C"/>
<path d="M105.423 61.2483C105.423 61.2483 113.293 51.1784 117.542 51.2038C117.542 51.2038 111.33 64.6546 105.098 64.531L105.423 61.2483Z" fill="#7ECA9C"/>
<path d="M108.082 50.4658L115.682 29.4935C115.682 29.4935 116.065 48.4519 107.115 54.3556L108.082 50.4658Z" fill="#7ECA9C"/>
<path d="M111.169 27.3378C111.169 27.3378 112.429 9.82997 111.619 8.40492C111.619 8.40492 117.054 22.9463 111.115 35.0738L111.169 27.3378Z" fill="#7ECA9C"/>
<path d="M85.2567 209.479C85.2567 209.479 77.3741 203.95 72.27 217.477C72.27 217.477 79.2854 222.745 86.1818 212.929L85.2567 209.479Z" fill="#7ECA9C"/>
<path d="M81.8071 194.393C81.8071 194.393 72.1385 189.401 67.4456 203.525C67.4456 203.525 74.917 209.341 82.6872 197.963L81.8071 194.393Z" fill="#7ECA9C"/>
<path d="M80.3327 181.76C80.3327 181.76 73.4073 172.599 62.9871 181.76C62.9871 181.76 69.5527 189.801 80.3327 184.101V181.76Z" fill="#7ECA9C"/>
<path d="M79.4684 167.266C79.4684 167.266 72.4531 157.697 62.4666 166.757C62.4666 166.757 70.3845 175.205 79.4684 169.505V167.266Z" fill="#7ECA9C"/>
<path d="M80.3325 155.502C80.3325 155.502 75.4115 141.688 64.7151 147.639C64.7151 147.639 70.4969 159.872 79.8989 157.788L80.3325 155.502Z" fill="#7ECA9C"/>
<path d="M82.6614 140.931C82.6614 140.931 77.7725 126.895 66.9219 133.406C66.9219 133.406 73.5646 146.272 82.1796 143.102L82.6614 140.931Z" fill="#7ECA9C"/>
<path d="M85.6938 128.426C85.6938 128.426 83.7665 113.037 74.7725 111.66C74.7725 111.66 76.6773 127.888 84.4796 131.2L85.6938 128.426Z" fill="#7ECA9C"/>
<path d="M88.1189 116.393C88.1189 116.393 87.3673 97.8525 79.9312 97.2091C79.9312 97.2091 80.1817 111.282 87.2805 119.021L88.1189 116.393Z" fill="#7ECA9C"/>
<path d="M93.3353 101.931C93.3353 101.931 91.1157 86.5139 84.02 84.6272C84.02 84.6272 84.9001 99.5611 92.635 105.712L93.3353 101.931Z" fill="#7ECA9C"/>
<path d="M97.6364 89.564C97.6364 89.564 97.5593 73.5066 93.2261 71.1437C93.2261 71.1437 90.5343 85.685 96.3804 91.6143L97.6364 89.564Z" fill="#7ECA9C"/>
<path d="M101.263 77.2619C101.263 77.2619 100.656 60.7248 96.1654 58.3945C96.1654 58.3945 94.6268 71.4818 100.589 78.3453L101.263 77.2619Z" fill="#7ECA9C"/>
<path d="M106.049 62.5643C106.049 62.5643 106.02 49.1135 102.818 45.9617C102.818 45.9617 99.6281 60.6957 104.376 65.2726L106.049 62.5643Z" fill="#7ECA9C"/>
<path d="M107.703 49.7969L104.587 27.4069C104.587 27.4069 100.351 45.7508 107.854 53.8322L107.703 49.7969Z" fill="#7ECA9C"/>
<path d="M108.314 27.5523C108.314 27.5523 100.309 12.5019 100.473 10.8297C100.473 10.8297 101.324 26.6034 111.394 34.4594L108.314 27.5523Z" fill="#7ECA9C"/>
<path d="M109.252 23.1062C109.252 23.1062 101.697 1.73042 98.2788 -0.00727654C98.2788 -0.00727654 109.072 6.20189 109.881 22.4882L109.252 23.1062Z" fill="#7ECA9C"/>
<path d="M105.056 64.6582L104.542 64.4765C110.919 40.9485 112.509 25.9418 109.02 22.1829L109.393 21.7394C113.09 25.7091 111.59 40.5486 105.056 64.6582Z" fill="#444053"/>
<path d="M87.502 119.737L86.7375 119.432C87.4121 117.276 88.1445 115.088 88.909 112.932C95.5645 94.1481 101.228 76.6985 104.86 63.2877L105.525 62.9242C101.886 76.3349 96.3226 94.4753 89.6606 113.274C88.8993 115.418 88.1734 117.592 87.502 119.737Z" fill="#444053"/>
<path d="M103.589 249.275C103.486 249.145 93.1492 235.977 85.9475 213.489C81.7242 200.327 79.3716 186.49 78.9772 172.493C78.4857 154.996 81.7268 135.457 87.287 117.712L87.8909 118.512C75.4149 158.341 80.3712 192.473 86.9465 213.024C94.0743 235.305 104.292 248.33 104.392 248.461L103.589 249.275Z" fill="#444053"/>
<path d="M58.5511 246.404C58.5511 246.404 46.3289 245.571 47.7711 255.263C47.7711 255.263 47.4852 256.975 48.8568 257.753C48.8568 257.753 48.8761 257.026 50.1096 257.277C50.5477 257.36 50.993 257.385 51.4362 257.35C52.0361 257.304 52.6067 257.039 53.0615 256.593C53.0615 256.593 56.4953 254.987 57.8316 248.632C57.8316 248.632 58.8209 247.247 58.7792 246.891L56.717 247.887C56.717 247.887 57.4236 249.57 56.8679 250.97C56.8679 250.97 56.8005 247.949 56.4054 248.018C56.3251 248.018 55.3325 248.603 55.3325 248.603C55.3325 248.603 56.5467 251.537 55.6313 253.667C55.6313 253.667 55.9782 250.053 54.9567 248.814L53.5048 249.774C53.5048 249.774 54.9214 252.802 53.9609 255.274C53.9609 255.274 54.2051 251.482 53.1997 250.006L51.8827 251.17C51.8827 251.17 53.2125 254.154 52.403 256.204C52.403 256.204 52.297 251.791 51.5968 251.457C51.5968 251.457 50.4468 252.605 50.2702 253.078C50.2702 253.078 51.1824 255.259 50.6171 256.39C50.6171 256.39 50.2702 253.449 49.9747 253.434C49.9747 253.434 48.8279 255.383 48.7091 256.706C48.7646 255.472 49.1046 254.277 49.6952 253.238C49.0343 253.38 48.4245 253.737 47.9414 254.267C47.9414 254.267 48.118 252.889 49.9779 252.769C49.9779 252.769 50.9415 251.289 51.1792 251.199C51.1792 251.199 49.329 251.024 48.208 251.588C48.208 251.588 49.1941 250.29 51.5197 250.861L52.8046 249.661C52.8046 249.661 50.3698 249.297 49.3354 249.701C49.3354 249.701 50.5239 248.552 53.1547 249.388L54.568 248.432C54.568 248.432 52.493 247.927 51.2531 248.109C51.2531 248.109 52.5604 247.312 54.9824 248.174L55.9942 247.661C55.9942 247.661 54.4717 247.323 54.0284 247.269C53.5851 247.214 53.5562 247.076 53.5562 247.076C54.5205 246.895 55.5104 247.02 56.415 247.44C56.415 247.44 58.5864 246.556 58.5511 246.404Z" fill="#7ECA9C"/>
<path d="M23.0248 250.9C23.0248 250.9 10.8186 250.068 12.248 259.76C12.248 259.76 11.9589 261.472 13.3305 262.25C13.3305 262.25 13.353 261.523 14.5864 261.774C15.0244 261.859 15.4699 261.883 15.9131 261.846C16.5122 261.802 17.0819 261.536 17.5352 261.09C17.5352 261.09 20.9722 259.484 22.3084 253.129C22.3084 253.129 23.2946 251.744 23.2721 251.388L21.2099 252.384C21.2099 252.384 21.9166 254.067 21.3609 255.466C21.3609 255.466 21.2934 252.445 20.8983 252.515C20.818 252.515 19.8255 253.1 19.8255 253.1C19.8255 253.1 21.0397 256.034 20.1242 258.164C20.1242 258.164 20.4711 254.55 19.4464 253.311L17.9945 254.27C17.9945 254.27 19.4111 257.299 18.4507 259.771C18.4507 259.771 18.698 255.979 17.6894 254.503L16.3756 255.666C16.3756 255.666 17.7054 258.651 16.896 260.701C16.896 260.701 16.79 256.288 16.0897 255.954C16.0897 255.954 14.9398 257.102 14.7631 257.575C14.7631 257.575 15.6754 259.756 15.11 260.887C15.11 260.887 14.7631 257.946 14.4676 257.931C14.4676 257.931 13.3241 259.88 13.202 261.203C13.2594 259.969 13.6004 258.774 14.1914 257.735C13.5296 257.877 12.9189 258.234 12.4343 258.764C12.4343 258.764 12.6142 257.386 14.474 257.266C14.474 257.266 15.4377 255.786 15.6754 255.699C15.6754 255.699 13.8252 255.521 12.7041 256.084C12.7041 256.084 13.6903 254.787 16.0159 255.357L17.3007 254.158C17.3007 254.158 14.8659 253.794 13.8316 254.198C13.8316 254.198 15.0201 253.049 17.6508 253.885L19.0642 252.929C19.0642 252.929 16.9859 252.424 15.7492 252.605C15.7492 252.605 17.0566 251.809 19.4785 252.671L20.4904 252.158C20.4904 252.158 18.9678 251.82 18.5213 251.766C18.0748 251.711 18.0524 251.573 18.0524 251.573C19.0167 251.394 20.006 251.52 20.9112 251.937C20.9112 251.937 23.0505 251.053 23.0248 250.9Z" fill="#7ECA9C"/>
<path d="M42.8246 261.458C42.8246 261.458 30.6184 260.625 32.0446 270.317C32.0446 270.317 31.7587 272.029 33.1303 272.807C33.1303 272.807 33.1528 272.08 34.3831 272.331C34.8223 272.414 35.2686 272.439 35.7129 272.404C36.3117 272.357 36.881 272.092 37.335 271.647C37.335 271.647 40.7688 270.041 42.1051 263.686C42.1051 263.686 43.0944 262.301 43.0687 261.945L41.0065 262.941C41.0065 262.941 41.71 264.624 41.1575 266.024C41.1575 266.024 41.09 263.003 40.6917 263.072C40.6114 263.072 39.6221 263.657 39.6221 263.657C39.6221 263.657 40.8331 266.587 39.9176 268.721C39.9176 268.721 40.2645 265.107 39.243 263.868L37.7912 264.828C37.7912 264.828 39.2077 267.856 38.2473 270.328C38.2473 270.328 38.4946 266.536 37.486 265.06L36.169 266.223C36.169 266.223 37.5021 269.208 36.6894 271.258C36.6894 271.258 36.5834 266.845 35.8863 266.511C35.8863 266.511 34.7332 267.659 34.5597 268.132C34.5597 268.132 35.472 270.313 34.9034 271.444C34.9034 271.444 34.5565 268.503 34.261 268.488C34.261 268.488 33.1143 270.437 32.9954 271.76C33.0509 270.526 33.3909 269.331 33.9815 268.292C33.3206 268.434 32.7109 268.791 32.2277 269.321C32.2277 269.321 32.4044 267.943 34.2674 267.823C34.2674 267.823 35.2118 266.343 35.4656 266.253C35.4656 266.253 33.6154 266.078 32.4943 266.642C32.4943 266.642 33.4837 265.344 35.806 265.933L37.0909 264.733C37.0909 264.733 34.6561 264.369 33.6218 264.773C33.6218 264.773 34.8135 263.624 37.441 264.46L38.8576 263.504C38.8576 263.504 36.7922 263.01 35.5523 263.192C35.5523 263.192 36.8564 262.395 39.2816 263.257L40.2902 262.744C40.2902 262.744 38.7709 262.406 38.3244 262.352C37.8779 262.297 37.8554 262.159 37.8554 262.159C38.8197 261.978 39.8096 262.103 40.7142 262.523C40.7142 262.523 42.8599 261.61 42.8246 261.458Z" fill="#7ECA9C"/>
<path opacity="0.1" d="M33.297 275.479C38.0745 275.479 41.9473 274.739 41.9473 273.825C41.9473 272.911 38.0745 272.171 33.297 272.171C28.5196 272.171 24.6467 272.911 24.6467 273.825C24.6467 274.739 28.5196 275.479 33.297 275.479Z" fill="#7ECA9C"/>
<path opacity="0.1" d="M307.672 275.479C312.45 275.479 316.323 274.739 316.323 273.825C316.323 272.911 312.45 272.171 307.672 272.171C302.895 272.171 299.022 272.911 299.022 273.825C299.022 274.739 302.895 275.479 307.672 275.479Z" fill="#7ECA9C"/>
<path opacity="0.1" d="M224.834 285C229.612 285 233.485 284.259 233.485 283.346C233.485 282.432 229.612 281.692 224.834 281.692C220.057 281.692 216.184 282.432 216.184 283.346C216.184 284.259 220.057 285 224.834 285Z" fill="#7ECA9C"/>
<path opacity="0.1" d="M321.353 261.141C326.13 261.141 330.003 260.401 330.003 259.487C330.003 258.574 326.13 257.833 321.353 257.833C316.576 257.833 312.703 258.574 312.703 259.487C312.703 260.401 316.576 261.141 321.353 261.141Z" fill="#7ECA9C"/>
<path opacity="0.1" d="M50.132 260.109C54.9094 260.109 58.7823 259.368 58.7823 258.455C58.7823 257.541 54.9094 256.801 50.132 256.801C45.3546 256.801 41.4817 257.541 41.4817 258.455C41.4817 259.368 45.3546 260.109 50.132 260.109Z" fill="#7ECA9C"/>
<path opacity="0.1" d="M14.5961 264.751C19.3736 264.751 23.2464 264.011 23.2464 263.097C23.2464 262.184 19.3736 261.443 14.5961 261.443C9.81868 261.443 5.9458 262.184 5.9458 263.097C5.9458 264.011 9.81868 264.751 14.5961 264.751Z" fill="#7ECA9C"/>
<path d="M232.653 28.9882H100.393C98.654 28.9882 97.2446 30.5833 97.2446 32.5509V258.589C97.2446 260.557 98.654 262.152 100.393 262.152H232.653C234.391 262.152 235.801 260.557 235.801 258.589V32.5509C235.801 30.5833 234.391 28.9882 232.653 28.9882Z" fill="#3A3768"/>
<path opacity="0.1" d="M215.451 49.0299H119.309C114.127 49.0299 109.926 53.7841 109.926 59.6487V84.2491C109.926 90.1137 114.127 94.8679 119.309 94.8679H215.451C220.633 94.8679 224.834 90.1137 224.834 84.2491V59.6487C224.834 53.7841 220.633 49.0299 215.451 49.0299Z" fill="black"/>
<path d="M220.556 49.9242H113.941C112.132 49.9242 110.665 51.5843 110.665 53.6322V90.5491C110.665 92.597 112.132 94.2572 113.941 94.2572H220.556C222.365 94.2572 223.832 92.597 223.832 90.5491V53.6322C223.832 51.5843 222.365 49.9242 220.556 49.9242Z" fill="#E6E8EC"/>
<path opacity="0.1" d="M133.314 113.961H117.394C115.48 113.961 113.928 115.717 113.928 117.883V138.772C113.928 140.938 115.48 142.694 117.394 142.694H133.314C135.228 142.694 136.78 140.938 136.78 138.772V117.883C136.78 115.717 135.228 113.961 133.314 113.961Z" fill="black"/>
<path opacity="0.1" d="M161.243 113.961H145.324C143.41 113.961 141.858 115.717 141.858 117.883V138.772C141.858 140.938 143.41 142.694 145.324 142.694H161.243C163.158 142.694 164.709 140.938 164.709 138.772V117.883C164.709 115.717 163.158 113.961 161.243 113.961Z" fill="black"/>
<path opacity="0.1" d="M189.173 113.961H173.253C171.339 113.961 169.788 115.717 169.788 117.883V138.772C169.788 140.938 171.339 142.694 173.253 142.694H189.173C191.087 142.694 192.639 140.938 192.639 138.772V117.883C192.639 115.717 191.087 113.961 189.173 113.961Z" fill="black"/>
<path opacity="0.1" d="M211.305 114.571H206.981C201.865 114.571 197.717 119.265 197.717 125.056V132.821C197.717 138.611 201.865 143.305 206.981 143.305H211.305C216.421 143.305 220.568 138.611 220.568 132.821V125.056C220.568 119.265 216.421 114.571 211.305 114.571Z" fill="black"/>
<path d="M217.103 113.961H201.183C199.269 113.961 197.717 115.717 197.717 117.883V138.772C197.717 140.938 199.269 142.694 201.183 142.694H217.103C219.017 142.694 220.568 140.938 220.568 138.772V117.883C220.568 115.717 219.017 113.961 217.103 113.961Z" fill="#7ECA9C"/>
<path opacity="0.1" d="M133.314 145.57H117.394C115.48 145.57 113.928 147.326 113.928 149.493V170.381C113.928 172.548 115.48 174.304 117.394 174.304H133.314C135.228 174.304 136.78 172.548 136.78 170.381V149.493C136.78 147.326 135.228 145.57 133.314 145.57Z" fill="black"/>
<path opacity="0.1" d="M161.243 145.57H145.324C143.41 145.57 141.858 147.326 141.858 149.493V170.381C141.858 172.548 143.41 174.304 145.324 174.304H161.243C163.158 174.304 164.709 172.548 164.709 170.381V149.493C164.709 147.326 163.158 145.57 161.243 145.57Z" fill="black"/>
<path opacity="0.1" d="M189.173 145.57H173.253C171.339 145.57 169.788 147.326 169.788 149.493V170.381C169.788 172.548 171.339 174.304 173.253 174.304H189.173C191.087 174.304 192.639 172.548 192.639 170.381V149.493C192.639 147.326 191.087 145.57 189.173 145.57Z" fill="black"/>
<path opacity="0.1" d="M133.314 180.462H117.394C115.48 180.462 113.928 182.218 113.928 184.385V205.273C113.928 207.44 115.48 209.196 117.394 209.196H133.314C135.228 209.196 136.78 207.44 136.78 205.273V184.385C136.78 182.218 135.228 180.462 133.314 180.462Z" fill="black"/>
<path opacity="0.1" d="M161.243 180.462H145.324C143.41 180.462 141.858 182.218 141.858 184.385V205.273C141.858 207.44 143.41 209.196 145.324 209.196H161.243C163.158 209.196 164.709 207.44 164.709 205.273V184.385C164.709 182.218 163.158 180.462 161.243 180.462Z" fill="black"/>
<path opacity="0.1" d="M189.173 180.462H173.253C171.339 180.462 169.788 182.218 169.788 184.385V205.273C169.788 207.44 171.339 209.196 173.253 209.196H189.173C191.087 209.196 192.639 207.44 192.639 205.273V184.385C192.639 182.218 191.087 180.462 189.173 180.462Z" fill="black"/>
<path opacity="0.1" d="M189.173 215.354H173.253C171.339 215.354 169.788 217.11 169.788 219.277V240.165C169.788 242.332 171.339 244.088 173.253 244.088H189.173C191.087 244.088 192.639 242.332 192.639 240.165V219.277C192.639 217.11 191.087 215.354 189.173 215.354Z" fill="black"/>
<path opacity="0.1" d="M211.305 146.181H206.981C201.865 146.181 197.717 150.875 197.717 156.665V164.43C197.717 170.221 201.865 174.915 206.981 174.915H211.305C216.421 174.915 220.568 170.221 220.568 164.43V156.665C220.568 150.875 216.421 146.181 211.305 146.181Z" fill="black"/>
<path d="M216.939 145.57H201.347C199.342 145.57 197.717 147.409 197.717 149.678V170.196C197.717 172.465 199.342 174.304 201.347 174.304H216.939C218.943 174.304 220.568 172.465 220.568 170.196V149.678C220.568 147.409 218.943 145.57 216.939 145.57Z" fill="#7ECA9C"/>
<path opacity="0.2" d="M216.939 145.57H201.347C199.342 145.57 197.717 147.409 197.717 149.678V170.196C197.717 172.465 199.342 174.304 201.347 174.304H216.939C218.943 174.304 220.568 172.465 220.568 170.196V149.678C220.568 147.409 218.943 145.57 216.939 145.57Z" fill="black"/>
<path opacity="0.1" d="M161.484 215.354H117.153C115.372 215.354 113.928 216.988 113.928 219.004V240.438C113.928 242.454 115.372 244.088 117.153 244.088H161.484C163.265 244.088 164.709 242.454 164.709 240.438V219.004C164.709 216.988 163.265 215.354 161.484 215.354Z" fill="black"/>
<path opacity="0.1" d="M216.82 180.462H199.285C197.216 180.462 195.54 182.36 195.54 184.701V239.853C195.54 242.194 197.216 244.092 199.285 244.092H216.82C218.889 244.092 220.565 242.194 220.565 239.853V184.701C220.565 182.36 218.889 180.462 216.82 180.462Z" fill="black"/>
<path d="M218.75 86.5139H208.748V87.739H218.75V86.5139Z" fill="#7ECA9C"/>
<path d="M204.106 86.5139H194.104V87.739H204.106V86.5139Z" fill="#7ECA9C"/>
<path d="M189.459 86.5139H179.456V87.739H189.459V86.5139Z" fill="#7ECA9C"/>
<path d="M174.815 86.5139H164.812V87.739H174.815V86.5139Z" fill="#7ECA9C"/>
<path d="M282.627 172.512C283.658 168.585 282.627 164.659 282.627 164.659V160.955C282.627 160.955 283.806 153.713 278.545 149.067L275.056 145.585C275.056 145.585 273.1 143.683 272.531 143.563C272.425 143.538 272.318 143.519 272.21 143.509L272.107 143.44C271.808 142.859 271.552 142.251 271.343 141.622C271.569 141.655 271.798 141.629 272.014 141.546C272.229 141.463 272.425 141.325 272.586 141.142C272.712 140.978 272.811 140.79 272.878 140.586C273.081 140.073 273.116 139.452 273.286 138.906C273.436 138.464 273.653 138.056 273.929 137.7C273.893 137.765 273.855 137.827 273.823 137.896C274.317 137.198 274.963 136.602 275.429 135.867C275.521 135.722 275.606 135.57 275.683 135.413C275.663 135.446 275.638 135.475 275.615 135.507C276.258 134.34 276.453 132.926 276.64 131.563C276.73 131.099 276.736 130.619 276.659 130.153C276.569 129.843 276.453 129.543 276.312 129.258C275.554 127.488 275.567 125.259 274.356 123.845C273.444 122.787 272.062 122.464 270.762 122.282C269.461 122.1 268.092 121.995 266.974 121.224C266.662 120.956 266.317 120.742 265.95 120.588C265.765 120.515 265.564 120.517 265.38 120.594C265.197 120.671 265.042 120.818 264.944 121.01C264.921 121.123 264.875 121.229 264.809 121.319C264.751 121.356 264.686 121.378 264.619 121.382C264.552 121.387 264.486 121.374 264.424 121.344L262.693 120.821L262.712 120.919H262.667L262.731 121.228C262.765 121.221 262.8 121.228 262.83 121.247C262.86 121.266 262.883 121.297 262.895 121.333L262.616 121.82C262.08 121.809 261.551 121.686 261.054 121.457C261.051 121.488 261.051 121.52 261.054 121.551H261.029C260.997 122.104 261.552 122.464 261.723 122.984C261.791 123.211 261.791 123.458 261.723 123.685C261.653 123.896 261.543 124.087 261.401 124.245C260.788 124.932 260.001 124.798 259.294 125.23C259.233 125.26 259.178 125.304 259.134 125.36C259.09 125.416 259.057 125.482 259.037 125.554C259.009 125.608 259.001 125.672 259.015 125.732C259.043 125.815 259.093 125.887 259.159 125.936C259.365 126.124 259.59 126.283 259.831 126.408C259.76 126.481 259.692 126.554 259.628 126.63C258.731 127.661 258.074 128.928 257.716 130.318C257.357 131.707 257.308 133.175 257.573 134.591C257.838 136.006 258.409 137.326 259.234 138.431C260.06 139.536 261.115 140.393 262.304 140.924C262.33 141.077 262.349 141.233 262.368 141.397C262.368 141.415 262.368 141.426 262.368 141.444L262.387 141.655L260.055 142.778C259.704 142.775 259.36 142.659 259.064 142.443C258.769 142.228 258.533 141.922 258.385 141.56C257.842 140.292 255.925 141.56 255.925 141.56C255.925 141.56 250.075 141.066 247.894 142.287C247.894 142.287 244.403 140.63 243.911 140.517C243.42 140.404 242.684 139.964 242.34 140.077C241.997 140.19 241.553 139.35 241.306 139.412C241.059 139.474 240.962 138.859 240.175 138.637C239.389 138.416 239.093 138.696 238.21 137.7C237.326 136.703 230.144 132.777 230.144 132.777L226.919 129.774L223.479 126.677L223.418 126.804C223.395 126.714 223.373 126.619 223.35 126.517C223.008 124.974 222.579 123.458 222.065 121.977C221.844 121.377 221.744 120.621 221.445 121.021C221.262 121.261 220.951 120.733 220.482 120.377C220.382 120.299 220.269 120.248 220.15 120.226C220.03 120.204 219.908 120.213 219.792 120.251C219.676 120.289 219.569 120.356 219.479 120.447C219.389 120.538 219.318 120.651 219.271 120.777C216.592 125.532 215.631 125.866 217.183 127.615C218.567 129.167 219.486 130.523 220.613 130.952L220.748 131C220.724 131.007 220.699 131.007 220.675 131L227.214 139.848C227.214 139.848 231.933 144.494 235.181 145.984C238.428 147.475 238.178 147.922 238.178 147.922C238.178 147.922 248.013 153.561 249.536 153.451C251.058 153.342 250.766 165.008 250.127 166.902C249.487 168.796 248.456 182.385 248.456 182.385C248.456 182.385 247.47 185.261 248.505 187.249C248.505 187.249 248.733 191.059 248.527 191.975C247.631 193.538 246.352 196.192 246.144 198.922C246.144 199.068 246.118 199.202 246.105 199.344C246.04 199.43 245.961 199.503 245.874 199.559L246.092 199.486C245.999 200.624 245.784 201.745 245.45 202.823C244.93 204.338 244.655 205.946 244.637 207.571V216.354L243.995 221.807C243.995 221.807 243.208 225.933 243.995 226.896C244.326 227.377 244.481 227.984 244.425 228.59C244.392 229.294 244.569 229.991 244.926 230.568C245.063 230.737 245.163 230.939 245.219 231.16C245.275 231.38 245.284 231.612 245.247 231.837C244.987 232.793 245.633 242.968 245.633 242.968C245.633 242.968 245.443 245.771 245.183 245.92C244.923 246.069 245.633 249.163 245.633 249.163C245.633 249.163 242.976 251.671 243.654 252.998L244.332 254.176L244.152 254.376L244.043 254.503C243.838 254.369 243.599 254.318 243.365 254.358C242.53 255.324 241.637 256.224 240.693 257.052C239.494 258.029 236.234 259.447 236.234 259.447L233.664 259.683H233.616C233.616 259.683 232.386 259.553 233.077 261.708C233.767 263.864 239.941 263.203 239.941 263.203L243.545 262.559C243.545 262.559 249.969 262.595 251.81 262.134C252.578 261.941 252.774 261.476 252.709 261.007L252.69 260.985C252.602 260.538 252.421 260.12 252.163 259.767C252.15 259.744 252.135 259.722 252.118 259.702L252.234 258.211C254.961 256.434 251.463 252.936 251.463 252.936C251.463 252.936 252.661 249.988 253.275 249.032C253.888 248.076 253.888 233.989 253.888 233.989C253.888 233.989 254.209 228.899 253.365 227.722C253.35 227.338 253.428 226.957 253.59 226.62C253.751 226.282 253.991 226.001 254.283 225.806C254.89 225.337 256.724 218.877 258.163 213.515L259.069 219.833C259.069 219.833 258.873 222.857 259.461 223.741C259.572 223.907 259.65 224.098 259.692 224.301C259.734 224.504 259.739 224.714 259.705 224.919C259.566 225.766 259.611 226.64 259.837 227.463C259.906 227.817 260.074 228.135 260.316 228.372C260.839 228.667 260.871 229.717 261.067 229.939C261.263 230.161 262.477 229.626 262.542 230.437C262.578 231.149 262.578 231.863 262.542 232.575L262.937 245.698C262.937 245.698 262.294 246.789 262.15 249.697C262.095 250.937 261.89 251.642 261.678 252.046C261.56 252.262 261.506 252.515 261.523 252.769C261.541 253.022 261.628 253.263 261.774 253.456L261.886 253.605L261.401 254.027C261.206 254.198 261.07 254.441 261.015 254.713C260.96 254.985 260.99 255.271 261.099 255.521C260.943 255.675 260.831 255.879 260.778 256.105C260.724 256.332 260.732 256.572 260.801 256.793C260.821 256.866 260.849 256.936 260.884 257.001C260.516 257.066 260.174 257.258 259.904 257.55C259.42 258.303 258.836 258.967 258.173 259.52C257.211 260.354 256.29 261.248 255.414 262.196C255.001 262.832 254.447 263.333 253.808 263.65C253.651 263.722 253.489 263.776 253.323 263.813C252.038 264.111 252.439 265.631 253.487 265.882C254.534 266.133 258.009 267.336 260.714 266.634C260.714 266.634 261.517 266.998 262.696 266.322C263.875 265.645 266.505 264.817 266.505 264.817C266.505 264.817 267.98 264.817 268.179 264.155C268.231 263.944 268.259 263.727 268.262 263.508L268.304 263.461L268.266 263.421C268.269 262.925 268.236 262.43 268.166 261.941C268.128 261.687 268.086 261.461 268.047 261.279C267.922 260.727 267.688 260.011 267.588 259.709C267.605 259.685 267.62 259.659 267.633 259.633C268.195 258.542 267.26 255.954 267.26 255.954C267.567 255.402 267.94 254.902 268.368 254.467C268.892 254.023 270.27 242.521 270.27 242.521C270.27 242.521 270.203 239.573 270.912 238.246C271.622 236.919 269.93 228.885 269.93 228.885C269.93 228.885 269.207 227.042 269.47 226.376C269.734 225.711 269.207 223.279 269.207 223.279V220.371C269.205 220.025 269.154 219.681 269.056 219.353C268.854 218.67 268.555 217.357 268.879 216.416C269.339 215.089 270.386 206.906 270.386 206.906C270.386 206.906 269.567 203.296 270.768 200.42C270.862 200.19 270.969 199.968 271.089 199.755C271.979 198.173 271.712 195.363 271.272 193.099C271.208 192.735 271.134 192.408 271.06 192.092C271.031 191.953 270.999 191.823 270.967 191.692L271.108 191.626C271.108 191.626 271.108 191.412 271.153 191.045C271.638 190.936 272.099 190.715 272.505 190.397C272.912 190.079 273.256 189.669 273.518 189.194C273.518 189.194 276.518 185.377 279.171 183.774C281.824 182.171 282.023 179.848 282.023 179.848C281.631 179.073 282.727 175.922 282.727 175.922L282.627 172.512ZM273.974 177.601L271.134 181.327V181.305C270.395 180.142 271.822 177.543 271.822 177.543L274.182 171.581C274.163 172.344 274.08 173.035 273.861 173.337C273.219 174.333 275.043 175.994 275.043 175.994C274.07 175.998 273.974 177.601 273.974 177.601Z" fill="url(#paint0_linear_92_243)"/>
<path d="M223.98 128.746L222.428 132.152C221.937 132.104 221.453 131.99 220.986 131.81C220.246 131.56 219.562 131.135 218.978 130.564C218.393 129.992 217.923 129.287 217.597 128.495C216.213 125.034 218.503 122.798 219.57 122.137C220.636 121.475 221.629 120.722 222.428 122.893C222.93 124.365 223.35 125.872 223.684 127.404C223.871 128.2 223.98 128.746 223.98 128.746Z" fill="#CC818C"/>
<path d="M273.251 146.464L270.775 150.638C270.775 150.638 259.073 156.956 261.308 149.547C262.291 146.275 262.407 143.887 262.23 142.233C262.23 142.215 262.23 142.204 262.23 142.186C261.999 140.117 261.312 139.219 261.312 139.219C261.312 139.219 272.718 132.61 271.019 137.129C270.672 138.068 270.534 139.089 270.617 140.103C270.757 141.562 271.176 142.97 271.844 144.229C272.246 145.025 272.717 145.774 273.251 146.464Z" fill="#CC818C"/>
<path d="M269.689 229.136C269.689 229.136 271.372 237.133 270.652 238.438C269.933 239.744 270.01 242.688 270.01 242.688C270.01 242.688 268.651 254.118 268.134 254.554C267.71 254.979 267.339 255.468 267.032 256.008C267.032 256.008 267.957 258.596 267.402 259.665C267.316 259.828 267.187 259.955 267.032 260.029C266.165 260.443 262.959 258.604 261.135 257.484C260.988 257.393 260.863 257.263 260.769 257.106C260.676 256.948 260.618 256.768 260.6 256.579C260.581 256.391 260.604 256.2 260.664 256.024C260.725 255.847 260.823 255.689 260.949 255.565C260.839 255.317 260.808 255.034 260.862 254.763C260.916 254.493 261.051 254.252 261.244 254.081L261.726 253.66L261.614 253.511C261.469 253.318 261.382 253.078 261.365 252.827C261.348 252.575 261.401 252.323 261.517 252.107C261.726 251.711 261.928 251.017 261.983 249.777C262.115 246.92 262.76 245.822 262.76 245.822L262.372 232.778C262.408 232.071 262.408 231.362 262.372 230.655C262.307 229.852 261.109 230.383 260.916 230.161C260.724 229.939 260.688 228.899 260.171 228.605C259.933 228.368 259.769 228.051 259.702 227.7C259.474 226.877 259.428 226.003 259.571 225.155C259.604 224.952 259.6 224.743 259.558 224.541C259.517 224.34 259.439 224.15 259.33 223.984C258.748 223.105 258.941 220.105 258.941 220.105L258.048 213.824C256.625 219.153 254.817 225.573 254.216 226.038C253.928 226.234 253.691 226.513 253.532 226.848C253.373 227.183 253.296 227.56 253.31 227.94C254.152 229.114 253.827 234.171 253.827 234.171C253.827 234.171 253.827 248.159 253.22 249.116C252.613 250.072 251.437 253.013 251.437 253.013C251.437 253.013 254.907 256.506 252.176 258.269H252.147C249.362 260.029 243.603 255.121 243.603 255.121L244.204 254.441L244.38 254.241L243.699 253.093C243.031 251.773 245.652 249.283 245.652 249.283C245.652 249.283 244.952 246.204 245.209 246.058C245.466 245.913 245.652 243.128 245.652 243.128C245.652 243.128 245.01 233.018 245.273 232.066C245.308 231.842 245.298 231.612 245.242 231.393C245.186 231.174 245.087 230.973 244.952 230.804C244.598 230.231 244.424 229.54 244.457 228.841C244.513 228.239 244.36 227.635 244.03 227.158C243.253 226.206 244.03 222.105 244.03 222.105L244.673 216.681V208.069C244.681 206.406 244.957 204.76 245.485 203.208C245.878 201.951 246.116 200.638 246.192 199.308C246.404 196.53 247.724 193.833 248.611 192.295C249.08 191.481 249.43 190.994 249.43 190.994L270.142 190.078C270.142 190.078 270.463 191.121 270.81 192.571C270.881 192.888 270.951 193.222 271.019 193.571C271.452 195.825 271.712 198.617 270.836 200.187C270.717 200.4 270.609 200.621 270.514 200.849C269.329 203.706 270.139 207.295 270.139 207.295C270.139 207.295 269.104 215.423 268.651 216.746C268.33 217.681 268.626 218.986 268.828 219.655C268.923 219.982 268.971 220.324 268.973 220.669V223.566C268.973 223.566 269.493 225.984 269.233 226.645C268.973 227.307 269.689 229.136 269.689 229.136Z" fill="#444053"/>
<path opacity="0.1" d="M270.643 200.42C270.523 200.631 270.415 200.851 270.322 201.078L269.156 201.005C269.268 200.326 268.475 193.953 268.475 193.953L270.823 193.804C271.256 196.054 271.52 198.846 270.643 200.42Z" fill="black"/>
<path d="M270.835 200.198C270.717 200.411 270.609 200.632 270.514 200.86L269.348 200.784C269.461 200.107 268.667 193.731 268.667 193.731L271.015 193.582C271.452 195.836 271.712 198.628 270.835 200.198Z" fill="#444053"/>
<path opacity="0.05" d="M270.835 200.198C270.717 200.411 270.609 200.632 270.514 200.86L269.348 200.784C269.461 200.107 268.667 193.731 268.667 193.731L271.015 193.582C271.452 195.836 271.712 198.628 270.835 200.198Z" fill="black"/>
<path opacity="0.1" d="M267.405 259.68C267.319 259.843 267.19 259.97 267.036 260.043C266.168 260.458 262.963 258.618 261.138 257.499C260.91 257.356 260.738 257.123 260.653 256.844C261.694 256.63 262.375 257.935 262.375 257.935C262.548 257.812 262.742 257.729 262.944 257.692C263.146 257.655 263.353 257.664 263.552 257.718C263.751 257.773 263.938 257.872 264.103 258.009C264.268 258.147 264.406 258.321 264.511 258.52C265.401 260.003 267.309 259.378 267.309 259.378L267.405 259.68Z" fill="black"/>
<path d="M267.941 264.169C267.749 264.831 266.29 264.831 266.29 264.831C266.29 264.831 263.685 265.675 262.519 266.333C261.353 266.991 260.563 266.645 260.563 266.645C257.894 267.34 254.46 266.133 253.426 265.893C252.391 265.653 251.987 264.137 253.265 263.842C253.429 263.804 253.589 263.748 253.744 263.675C254.384 263.361 254.939 262.859 255.35 262.221C256.215 261.279 257.126 260.392 258.077 259.564C258.732 259.013 259.308 258.352 259.786 257.604C261.308 256.084 262.391 258.171 262.391 258.171C262.564 258.048 262.758 257.966 262.96 257.929C263.163 257.892 263.369 257.901 263.568 257.956C263.767 258.011 263.955 258.11 264.119 258.248C264.284 258.386 264.423 258.56 264.527 258.76C265.417 260.243 267.325 259.614 267.325 259.614C267.325 259.614 267.668 260.607 267.829 261.319C267.867 261.501 267.909 261.727 267.948 261.981C268.034 262.719 268.089 263.675 267.941 264.169Z" fill="#FF748F"/>
<path d="M263.489 259.538C263.587 259.538 263.666 259.449 263.666 259.338C263.666 259.228 263.587 259.138 263.489 259.138C263.392 259.138 263.312 259.228 263.312 259.338C263.312 259.449 263.392 259.538 263.489 259.538Z" fill="#575988"/>
<path d="M261.97 261.149C262.067 261.149 262.147 261.059 262.147 260.949C262.147 260.838 262.067 260.749 261.97 260.749C261.872 260.749 261.793 260.838 261.793 260.949C261.793 261.059 261.872 261.149 261.97 261.149Z" fill="#575988"/>
<path d="M260.425 262.595C260.523 262.595 260.602 262.506 260.602 262.395C260.602 262.285 260.523 262.195 260.425 262.195C260.327 262.195 260.248 262.285 260.248 262.395C260.248 262.506 260.327 262.595 260.425 262.595Z" fill="#575988"/>
<path d="M261.225 261.948C261.322 261.948 261.401 261.859 261.401 261.748C261.401 261.638 261.322 261.548 261.225 261.548C261.127 261.548 261.048 261.638 261.048 261.748C261.048 261.859 261.127 261.948 261.225 261.948Z" fill="#575988"/>
<path d="M262.763 260.294C262.861 260.294 262.94 260.205 262.94 260.094C262.94 259.984 262.861 259.894 262.763 259.894C262.666 259.894 262.587 259.984 262.587 260.094C262.587 260.205 262.666 260.294 262.763 260.294Z" fill="#575988"/>
<path d="M267.941 264.169C267.749 264.831 266.29 264.831 266.29 264.831C266.29 264.831 263.685 265.675 262.519 266.332C261.353 266.99 260.563 266.645 260.563 266.645C257.894 267.339 254.46 266.133 253.426 265.893C252.391 265.653 251.987 264.137 253.265 263.842C253.429 263.804 253.589 263.748 253.744 263.675C254.873 264.115 256.052 264.368 257.245 264.428C259.882 264.555 261.97 264.428 261.97 264.428L264.639 263.457C265.145 263.11 265.706 262.88 266.29 262.781C266.881 262.644 267.44 262.37 267.932 261.974C268.035 262.719 268.089 263.675 267.941 264.169Z" fill="#DCE6F2"/>
<path opacity="0.5" d="M261.299 266.063C261.15 266.065 261.001 266.049 260.855 266.016L260.894 265.802C261.44 265.896 261.998 265.808 262.5 265.547C262.738 265.442 262.975 265.315 263.207 265.184C263.438 265.053 263.762 264.889 264.052 264.769L264.315 264.668C264.46 264.609 264.607 264.555 264.749 264.486C264.829 264.449 264.909 264.406 264.986 264.362C265.176 264.25 265.376 264.163 265.584 264.104C265.69 264.082 265.797 264.066 265.905 264.057C266.004 264.049 266.103 264.036 266.201 264.017C266.395 263.961 266.583 263.882 266.763 263.78C266.954 263.669 267.157 263.583 267.367 263.526L267.508 263.501C267.66 263.496 267.807 263.435 267.925 263.326L268.07 263.475C267.923 263.622 267.736 263.707 267.54 263.719L267.405 263.744C267.21 263.798 267.022 263.877 266.843 263.98C266.65 264.089 266.448 264.173 266.239 264.231C266.133 264.255 266.026 264.27 265.918 264.275C265.817 264.283 265.716 264.298 265.616 264.319C265.423 264.375 265.236 264.457 265.06 264.562L264.816 264.689C264.668 264.758 264.514 264.817 264.366 264.875L264.109 264.977C263.827 265.093 263.55 265.242 263.281 265.384C263.011 265.525 262.805 265.638 262.561 265.747C262.161 265.94 261.733 266.048 261.299 266.063Z" fill="#575988"/>
<path opacity="0.1" d="M261.922 229.666C261.922 229.666 263.265 227.485 265.564 227.485C267.864 227.485 268.847 227.191 268.847 227.191C268.847 227.191 267.376 228.18 266.358 228.307C265.34 228.434 261.922 229.666 261.922 229.666Z" fill="black"/>
<path opacity="0.1" d="M262.699 230.179C262.699 230.179 263.913 229.227 264.607 229.19C265.301 229.154 265.892 229.081 265.892 229.081C265.566 229.34 265.206 229.537 264.825 229.666C264.257 229.848 262.699 230.179 262.699 230.179Z" fill="black"/>
<path opacity="0.1" d="M262.972 230.837C262.972 230.837 264.8 231.001 264.816 231.564L262.972 230.837Z" fill="black"/>
<path opacity="0.1" d="M245.925 199.937C246.022 199.955 247.657 198.014 247.769 197.246C247.858 196.761 248.113 196.335 248.479 196.061C248.479 196.061 249.533 196.538 248.595 197.999C247.657 199.46 245.925 199.937 245.925 199.937Z" fill="black"/>
<path opacity="0.1" d="M271.003 137.122C270.63 138.118 270.302 138.212 270.36 139.161C269.927 139.681 269.428 140.125 268.879 140.481C267.723 141.259 266.464 142.782 265.025 142.782C264.061 142.782 263.105 142.578 262.208 142.178C261.976 140.11 261.289 139.212 261.289 139.212C261.289 139.212 272.699 132.603 271.003 137.122Z" fill="black"/>
<path d="M272.75 133.606C272.75 135.332 272.298 137.019 271.451 138.453C270.604 139.888 269.4 141.006 267.991 141.667C266.582 142.327 265.032 142.5 263.537 142.163C262.041 141.827 260.668 140.996 259.59 139.776C258.511 138.555 257.777 137.001 257.48 135.308C257.182 133.616 257.335 131.862 257.918 130.267C258.502 128.673 259.49 127.31 260.758 126.352C262.026 125.393 263.516 124.881 265.041 124.881C267.085 124.881 269.046 125.801 270.492 127.437C271.938 129.073 272.75 131.292 272.75 133.606Z" fill="#CC818C"/>
<path opacity="0.1" d="M273.251 146.464L270.775 150.638C270.775 150.638 259.073 156.956 261.308 149.547C262.291 146.275 262.407 143.887 262.23 142.233H262.249C262.388 142.781 262.467 143.346 262.484 143.916C262.519 145.057 262.545 146.501 265.054 146.977C269.229 147.769 271.459 144.818 271.851 144.24C272.251 145.032 272.72 145.777 273.251 146.464Z" fill="black"/>
<path opacity="0.1" d="M223.98 128.746L222.428 132.152C221.937 132.104 221.453 131.99 220.986 131.81L220.851 131.629C221.493 131.905 223.617 127.342 223.617 127.342L223.684 127.404C223.87 128.2 223.98 128.746 223.98 128.746Z" fill="black"/>
<path opacity="0.1" d="M270.81 192.582C265.812 195.04 248.524 192.946 248.524 192.946C248.576 192.737 248.605 192.522 248.611 192.306C249.08 191.492 249.43 191.005 249.43 191.005L270.142 190.088C270.142 190.088 270.479 191.132 270.81 192.582Z" fill="black"/>
<path d="M262.237 142.436L259.93 143.552C259.582 143.549 259.242 143.433 258.95 143.219C258.658 143.005 258.427 142.7 258.282 142.342C257.746 141.08 255.854 142.342 255.854 142.342C255.854 142.342 250.072 141.847 247.939 143.069C247.939 143.069 244.493 141.419 244.008 141.309C243.523 141.2 242.793 140.76 242.453 140.87C242.112 140.979 241.679 140.142 241.435 140.212C241.191 140.281 241.094 139.663 240.317 139.441C239.539 139.219 239.25 139.495 238.39 138.507C237.529 137.518 230.427 133.617 230.427 133.617L227.214 130.651L223.816 127.575C223.816 127.575 221.68 132.134 221.047 131.858L227.504 140.651C227.504 140.651 232.164 145.265 235.37 146.748C238.576 148.231 238.332 148.671 238.332 148.671C238.332 148.671 248.042 154.277 249.545 154.168C251.049 154.059 250.766 165.637 250.123 167.506C249.481 169.374 248.476 182.89 248.476 182.89C248.476 182.89 247.512 185.748 248.524 187.725C248.524 187.725 248.765 191.793 248.524 192.506C248.524 192.506 265.918 194.611 270.855 192.121C270.855 192.121 271.584 183 270.855 181.847C270.126 180.695 271.536 178.125 271.536 178.125L274.642 170.269L282.216 161.642C282.216 161.642 283.379 154.444 278.185 149.831L274.738 146.366C274.738 146.366 272.811 144.479 272.246 144.359C271.68 144.24 271.889 144.359 271.889 144.359C271.889 144.359 269.641 148.071 265.028 147.191C262.529 146.715 262.503 145.272 262.458 144.134C262.445 143.56 262.371 142.99 262.237 142.436Z" fill="#67647E"/>
<path opacity="0.1" d="M271.728 172.014C271.728 172.014 261.045 172.508 258.912 176.307C258.912 176.307 261.681 174.82 264.154 175.26C266.627 175.7 271.728 172.014 271.728 172.014Z" fill="black"/>
<path opacity="0.1" d="M259.93 185.253C259.93 185.253 264.98 185.639 266.049 184.428C267.119 183.218 267.122 182.505 267.122 182.505L259.93 185.253Z" fill="black"/>
<path opacity="0.1" d="M272.75 160.362C272.75 160.362 268.474 166.077 273.672 168.549L272.75 160.362Z" fill="black"/>
<path opacity="0.1" d="M247.454 149.322C247.454 149.322 249.009 152.91 249.786 153.146L247.454 149.322Z" fill="black"/>
<path opacity="0.1" d="M242.212 147.78C242.212 147.78 246.095 151.739 246.825 152.121C246.825 152.121 242.793 147.78 242.212 147.78Z" fill="black"/>
<path opacity="0.1" d="M257.698 143.992C257.698 143.992 253.959 150.311 256.387 154.171C256.387 154.157 255.028 149.594 257.698 143.992Z" fill="black"/>
<path d="M267.122 191.848L265.979 193.066L265.818 193.233L264.495 194.651C264.401 194.731 264.308 194.811 264.212 194.883C258.825 199.246 257.746 192.615 257.746 192.615C257.746 192.615 255.369 194.375 255.028 192.946C254.688 191.517 260.563 189.485 261.453 189.594C261.531 189.603 261.609 189.603 261.687 189.594C262.112 189.514 262.52 189.351 262.895 189.111L263.155 188.954C263.454 188.764 263.745 188.556 264.026 188.333L267.122 191.848Z" fill="#CC818C"/>
<path opacity="0.1" d="M272.93 133.606C272.933 135.119 272.588 136.607 271.929 137.924C271.27 139.241 270.32 140.341 269.172 141.117C269.064 140.913 268.97 140.7 268.889 140.481C268.613 139.754 268.442 138.968 268.163 138.238C267.857 137.44 267.421 136.715 266.878 136.1C266.786 135.978 266.668 135.886 266.534 135.831C266.41 135.811 266.282 135.821 266.161 135.859C266.039 135.897 265.926 135.963 265.828 136.053C265.501 136.303 265.136 136.485 264.752 136.587C264.559 136.637 264.359 136.63 264.17 136.566C263.981 136.502 263.809 136.384 263.672 136.224C263.37 135.816 263.412 135.22 263.499 134.7C263.688 133.563 264.003 132.443 264.006 131.287C264.01 130.131 263.618 128.887 262.722 128.313C261.938 127.808 260.965 127.95 260.094 127.666C259.959 127.626 259.827 127.575 259.699 127.513C260.769 126.27 262.143 125.416 263.644 125.061C265.145 124.706 266.706 124.866 268.126 125.52C269.547 126.175 270.763 127.293 271.618 128.734C272.474 130.174 272.931 131.871 272.93 133.606Z" fill="black"/>
<path d="M259.172 126.117C259.034 126.201 258.88 126.354 258.922 126.528C258.948 126.611 258.998 126.683 259.063 126.732C259.422 127.06 259.838 127.302 260.283 127.441C261.154 127.71 262.13 127.582 262.914 128.088C263.801 128.658 264.199 129.905 264.199 131.061C264.199 132.217 263.878 133.337 263.695 134.471C263.608 134.995 263.563 135.591 263.865 135.998C264.002 136.158 264.174 136.276 264.363 136.339C264.552 136.403 264.752 136.411 264.944 136.362C265.329 136.261 265.694 136.081 266.02 135.831C266.119 135.741 266.233 135.674 266.355 135.636C266.477 135.597 266.605 135.587 266.73 135.606C266.862 135.662 266.98 135.755 267.074 135.875C267.618 136.49 268.054 137.217 268.359 138.016C268.641 138.743 268.809 139.524 269.085 140.259C269.325 141.008 269.777 141.646 270.37 142.076C270.986 142.462 271.841 142.44 272.316 141.844C272.792 141.248 272.753 140.43 272.978 139.714C273.363 138.467 274.439 137.685 275.114 136.609C275.869 135.398 276.078 133.879 276.283 132.414C276.375 131.952 276.381 131.475 276.302 131.011C276.214 130.703 276.1 130.406 275.962 130.123C275.21 128.364 275.226 126.15 274.035 124.747C273.135 123.693 271.77 123.373 270.485 123.191C269.2 123.009 267.851 122.907 266.75 122.14C266.441 121.876 266.1 121.663 265.738 121.508C265.554 121.435 265.354 121.437 265.172 121.514C264.99 121.591 264.838 121.738 264.742 121.929C264.719 122.041 264.674 122.146 264.61 122.235C264.553 122.272 264.488 122.294 264.422 122.299C264.355 122.303 264.289 122.29 264.228 122.26L262.519 121.74L262.715 122.715C262.094 122.744 261.475 122.62 260.9 122.351C260.868 122.904 261.417 123.26 261.588 123.776C261.649 124.011 261.651 124.26 261.595 124.497C261.538 124.733 261.424 124.947 261.266 125.114C260.646 125.819 259.872 125.685 259.172 126.117Z" fill="#585268"/>
<path opacity="0.1" d="M252.247 257.397L252.176 258.273H252.147C249.362 260.032 243.603 255.125 243.603 255.125L244.204 254.445C244.302 254.569 244.377 254.715 244.422 254.873C244.467 255.032 244.483 255.199 244.467 255.365L245.643 255.437L247.05 257.157C247.05 257.157 250.856 257.655 251.887 257.379L252.247 257.397Z" fill="black"/>
<path d="M251.759 262.174C249.947 262.632 243.603 262.599 243.603 262.599L240.044 263.235C240.044 263.235 233.941 263.897 233.263 261.752C232.585 259.607 233.796 259.742 233.796 259.742H233.844L236.385 259.509C236.385 259.509 239.597 258.098 240.789 257.128C241.722 256.306 242.603 255.412 243.426 254.452C243.426 254.452 244.486 254.22 244.467 255.608L245.643 255.681L247.05 257.404C247.05 257.404 250.856 257.902 251.887 257.622H252.247L252.083 259.749L252.128 259.811C252.372 260.145 253.377 261.766 251.759 262.174Z" fill="#FF748F"/>
<path d="M245.19 257.044C245.287 257.044 245.366 256.955 245.366 256.844C245.366 256.734 245.287 256.644 245.19 256.644C245.092 256.644 245.013 256.734 245.013 256.844C245.013 256.955 245.092 257.044 245.19 257.044Z" fill="#575988"/>
<path d="M240.625 259.284C240.723 259.284 240.802 259.194 240.802 259.084C240.802 258.973 240.723 258.884 240.625 258.884C240.528 258.884 240.448 258.973 240.448 259.084C240.448 259.194 240.528 259.284 240.625 259.284Z" fill="#575988"/>
<path d="M238.274 260.091C238.371 260.091 238.451 260.001 238.451 259.891C238.451 259.78 238.371 259.691 238.274 259.691C238.176 259.691 238.097 259.78 238.097 259.891C238.097 260.001 238.176 260.091 238.274 260.091Z" fill="#575988"/>
<path d="M241.823 258.855C241.921 258.855 242 258.765 242 258.655C242 258.544 241.921 258.455 241.823 258.455C241.726 258.455 241.647 258.544 241.647 258.655C241.647 258.765 241.726 258.855 241.823 258.855Z" fill="#575988"/>
<path d="M239.446 259.687C239.544 259.687 239.623 259.598 239.623 259.487C239.623 259.377 239.544 259.287 239.446 259.287C239.349 259.287 239.27 259.377 239.27 259.487C239.27 259.598 239.349 259.687 239.446 259.687Z" fill="#575988"/>
<path d="M243.034 258.218C243.132 258.218 243.211 258.129 243.211 258.018C243.211 257.908 243.132 257.819 243.034 257.819C242.937 257.819 242.858 257.908 242.858 258.018C242.858 258.129 242.937 258.218 243.034 258.218Z" fill="#575988"/>
<path d="M244.232 257.63C244.33 257.63 244.409 257.54 244.409 257.43C244.409 257.319 244.33 257.23 244.232 257.23C244.135 257.23 244.056 257.319 244.056 257.43C244.056 257.54 244.135 257.63 244.232 257.63Z" fill="#575988"/>
<path d="M251.759 262.174C249.947 262.632 243.603 262.599 243.603 262.599L240.044 263.235C240.044 263.235 233.941 263.897 233.263 261.752C232.585 259.607 233.796 259.742 233.796 259.742H233.844C234.233 260.312 235.014 260.96 236.546 260.992L240.934 261.192L245.479 260.829C245.479 260.829 249.738 260.687 250.432 260.52C251.015 260.342 251.582 260.106 252.128 259.814C252.372 260.145 253.377 261.767 251.759 262.174Z" fill="#DCE6F2"/>
<path opacity="0.5" d="M240.387 262.752C240.145 262.756 239.903 262.721 239.668 262.65L239.719 262.439C240.318 262.585 240.94 262.553 241.525 262.348C241.74 262.283 241.952 262.214 242.167 262.141C242.556 262.001 242.952 261.889 243.352 261.803C244 261.708 244.654 261.686 245.305 261.737H245.443C247.39 261.853 249.341 261.755 251.27 261.443C251.728 261.407 252.164 261.209 252.517 260.876L252.655 261.032C252.274 261.398 251.801 261.618 251.302 261.661C249.36 261.974 247.396 262.073 245.437 261.956H245.296C244.653 261.905 244.007 261.927 243.368 262.021C242.976 262.104 242.589 262.214 242.209 262.352C241.994 262.425 241.778 262.497 241.566 262.559C241.182 262.677 240.786 262.742 240.387 262.752Z" fill="#575988"/>
<path opacity="0.1" d="M267.122 191.848L265.979 193.066L263.139 188.951C263.438 188.76 263.729 188.553 264.01 188.329L267.122 191.848Z" fill="black"/>
<path d="M279.996 158.13L282.245 161.646V165.328C282.245 165.328 283.263 169.229 282.245 173.13L282.354 176.536C282.354 176.536 281.272 179.666 281.66 180.437C281.66 180.437 281.468 182.745 278.846 184.337C276.225 185.93 273.251 189.703 273.251 189.703C273.251 189.703 272.133 192.121 269.123 191.572L266.258 192.946L262.959 188.165L267.424 185.417C267.424 185.417 268.979 183.058 269.901 183.167L273.688 178.165C273.688 178.165 273.784 176.572 274.754 176.572C274.754 176.572 272.959 174.925 273.588 173.937C274.218 172.948 273.688 168.549 273.688 168.549L279.996 158.13Z" fill="#67647E"/>
<path opacity="0.1" d="M275.821 174.155C275.821 174.155 280.918 174.046 281.548 175.529C282.178 177.012 277.359 173.33 275.821 174.155Z" fill="black"/>
<path opacity="0.1" d="M265.841 192.946C265.841 193.042 265.834 193.138 265.818 193.233C265.759 193.675 265.568 194.081 265.275 194.382C264.982 194.683 264.607 194.86 264.212 194.883H264.122C263.667 194.883 263.231 194.679 262.909 194.315C262.588 193.951 262.407 193.457 262.407 192.942C262.407 192.728 262.44 192.515 262.503 192.313C261.694 191.586 261.649 190.248 261.671 189.587C262.096 189.507 262.505 189.343 262.879 189.103C263.09 189.79 263.374 190.446 263.724 191.055C263.854 191.021 263.988 191.002 264.122 191.001C264.348 191.001 264.571 191.051 264.78 191.149C264.988 191.247 265.178 191.39 265.337 191.571C265.497 191.751 265.623 191.966 265.71 192.202C265.796 192.438 265.841 192.69 265.841 192.946Z" fill="black"/>
<path d="M263.033 188.667C263.033 188.667 261.883 188.962 261.883 189.198C261.883 189.434 261.623 191.579 262.885 192.47C264.148 193.36 264.019 191.241 264.019 191.241C264.019 191.241 262.934 189.358 263.033 188.667Z" fill="#575988"/>
<path d="M264.315 194.887C265.262 194.887 266.03 194.018 266.03 192.946C266.03 191.874 265.262 191.005 264.315 191.005C263.368 191.005 262.6 191.874 262.6 192.946C262.6 194.018 263.368 194.887 264.315 194.887Z" fill="#E4AAB4"/>
<path d="M264.315 194.611C265.127 194.611 265.786 193.865 265.786 192.946C265.786 192.026 265.127 191.281 264.315 191.281C263.502 191.281 262.844 192.026 262.844 192.946C262.844 193.865 263.502 194.611 264.315 194.611Z" fill="#DCE6F2"/>
<path opacity="0.1" d="M257.634 193.698C257.634 193.698 261.26 197.101 265.918 194.942V196.592C265.918 196.592 262.812 199.01 259.998 197.545C257.184 196.08 257.634 193.698 257.634 193.698Z" fill="black"/>
<path opacity="0.1" d="M257.634 193.258C257.634 193.258 261.26 196.665 265.918 194.502V196.152C265.918 196.152 262.812 198.57 259.998 197.105C257.184 195.64 257.634 193.258 257.634 193.258Z" fill="black"/>
<path d="M257.634 193.258C257.634 193.258 261.26 196.665 265.918 194.502V196.152C265.918 196.152 262.812 198.57 259.998 197.105C257.184 195.64 257.634 193.258 257.634 193.258Z" fill="#444053"/>
<path opacity="0.05" d="M257.73 193.258C257.73 193.258 261.356 196.665 266.017 194.502V196.152C266.017 196.152 262.911 198.57 260.094 197.105C257.277 195.64 257.73 193.258 257.73 193.258Z" fill="black"/>
<path opacity="0.1" d="M246.24 254.445C246.24 254.445 251.097 255.456 251.807 255.674C252.517 255.892 251.614 256.277 251.614 256.277C251.614 256.277 247.181 255.379 246.24 254.445Z" fill="black"/>
<path opacity="0.1" d="M246.128 251.533C246.208 251.533 249.43 250.508 250.124 248.752L246.128 251.533Z" fill="black"/>
<path opacity="0.1" d="M250.827 230.51C250.827 230.51 252.131 232.451 252.973 232.397C253.814 232.342 251.591 230.437 250.827 230.51Z" fill="black"/>
<path opacity="0.1" d="M251.55 233.745C251.55 233.745 252.099 235.116 252.909 234.676L251.55 233.745Z" fill="black"/>
<path opacity="0.05" d="M254.621 203.572L258.064 213.849C258.064 213.849 258.549 207.236 257.524 205.259C257.233 204.693 256.805 204.234 256.29 203.935C255.776 203.636 255.196 203.51 254.621 203.572Z" fill="black"/>
<g opacity="0.1">
<path opacity="0.1" d="M263.081 122.14L263.052 121.991L262.5 121.824L262.561 122.129C262.734 122.144 262.908 122.148 263.081 122.14Z" fill="black"/>
<path opacity="0.1" d="M261.562 124.62L261.62 124.561C261.778 124.394 261.892 124.181 261.949 123.944C262.006 123.708 262.003 123.458 261.941 123.224C261.874 123.041 261.781 122.873 261.665 122.726C261.393 122.665 261.126 122.576 260.868 122.46C260.836 123.009 261.382 123.365 261.552 123.882C261.631 124.119 261.635 124.38 261.562 124.62Z" fill="black"/>
<path opacity="0.1" d="M270.746 141.513C270.147 141.086 269.689 140.447 269.445 139.695C269.172 138.968 269.001 138.183 268.722 137.456C268.417 136.657 267.981 135.93 267.437 135.315C267.344 135.194 267.226 135.101 267.093 135.046C266.968 135.027 266.841 135.037 266.72 135.075C266.599 135.113 266.485 135.179 266.387 135.267C266.06 135.518 265.695 135.699 265.311 135.802C265.118 135.851 264.918 135.844 264.729 135.78C264.54 135.716 264.369 135.599 264.231 135.438C263.929 135.031 263.971 134.431 264.058 133.912C264.247 132.777 264.562 131.654 264.565 130.502C264.569 129.349 264.177 128.099 263.281 127.528C262.497 127.023 261.523 127.164 260.653 126.881C260.206 126.742 259.79 126.5 259.429 126.172C259.406 126.151 259.385 126.128 259.365 126.103C259.292 126.134 259.221 126.172 259.153 126.215C259.012 126.299 258.861 126.452 258.899 126.626C258.928 126.709 258.979 126.78 259.044 126.83C259.403 127.159 259.819 127.4 260.264 127.539C261.135 127.808 262.108 127.681 262.892 128.186C263.778 128.757 264.177 130.004 264.177 131.16C264.177 132.316 263.855 133.435 263.669 134.569C263.582 135.093 263.541 135.689 263.843 136.096C263.98 136.257 264.151 136.374 264.34 136.438C264.529 136.502 264.73 136.509 264.922 136.46C265.306 136.359 265.671 136.179 265.998 135.929C266.096 135.839 266.209 135.773 266.331 135.734C266.452 135.695 266.58 135.685 266.705 135.704C266.837 135.76 266.955 135.852 267.048 135.973C267.591 136.59 268.027 137.316 268.333 138.114C268.616 138.841 268.783 139.623 269.059 140.357C269.3 141.106 269.751 141.744 270.344 142.175C270.958 142.56 271.815 142.538 272.271 141.942C272.398 141.78 272.496 141.593 272.56 141.389C272.301 141.608 271.992 141.736 271.669 141.758C271.347 141.78 271.026 141.695 270.746 141.513Z" fill="black"/>
<path opacity="0.1" d="M273.521 138.717C274.006 138.023 274.645 137.431 275.101 136.703C275.191 136.558 275.275 136.405 275.352 136.253C274.764 137.1 273.958 137.772 273.521 138.717Z" fill="black"/>
</g>
</g>
<defs>
<linearGradient id="paint0_linear_92_243" x1="249.764" y1="266.856" x2="249.764" y2="120.214" gradientUnits="userSpaceOnUse">
<stop stop-color="#808080" stop-opacity="0.25"/>
<stop offset="0.54" stop-color="#808080" stop-opacity="0.12"/>
<stop offset="1" stop-color="#808080" stop-opacity="0.1"/>
</linearGradient>
<clipPath id="clip0_92_243">
<rect width="330" height="285" fill="white"/>
</clipPath>
</defs>
</svg>
