<svg width="30" height="30" viewBox="0 0 30 30" fill="none" xmlns="http://www.w3.org/2000/svg">
<path d="M29.9912 0H0.00878906C0.003935 0 0 0.003935 0 0.00878906V29.9912C0 29.9961 0.003935 30 0.00878906 30H29.9912C29.9961 30 30 29.9961 30 29.9912V0.00878906C30 0.003935 29.9961 0 29.9912 0Z" fill="#1A1A1A"/>
<path d="M19.4945 4H9.52889C6.47537 4 4 6.47537 4 9.52889V19.4945C4 22.5481 6.47537 25.0234 9.52889 25.0234H19.4945C22.5481 25.0234 25.0234 22.5481 25.0234 19.4945V9.52889C25.0234 6.47537 22.5481 4 19.4945 4Z" stroke="white" stroke-width="2"/>
<path d="M14.5112 19.4263C17.2255 19.4263 19.4258 17.226 19.4258 14.5117C19.4258 11.7975 17.2255 9.59717 14.5112 9.59717C11.797 9.59717 9.59668 11.7975 9.59668 14.5117C9.59668 17.226 11.797 19.4263 14.5112 19.4263Z" stroke="white" stroke-width="2"/>
<path d="M20.723 8.70978C20.9492 8.70978 21.1326 8.52642 21.1326 8.30023C21.1326 8.07405 20.9492 7.89069 20.723 7.89069C20.4968 7.89069 20.3135 8.07405 20.3135 8.30023C20.3135 8.52642 20.4968 8.70978 20.723 8.70978Z" stroke="white" stroke-width="2"/>
</svg>
