<svg width="720" height="622" viewBox="0 0 720 622" fill="none" xmlns="http://www.w3.org/2000/svg">
<path d="M0 355.853V199.993L140.733 115.728L275.267 199.993V355.853L140.733 439.485L0 355.853Z" fill="#2F2E41" fill-opacity="0.5"/>
<path d="M292.119 256.512V143.701L398.387 82.71L499.973 143.701V256.512L398.387 317.044L292.119 256.512Z" fill="#2F2E41" fill-opacity="0.2"/>
<path d="M488.738 407.58V272.914L606.973 200.107L720 272.914V407.58L606.973 479.84L488.738 407.58Z" fill="#2F2E41" fill-opacity="0.2"/>
<path d="M464.395 535.231V489.753L507.476 465.166L548.66 489.753V535.231L507.476 559.633L464.395 535.231Z" fill="#2F2E41" fill-opacity="0.2"/>
<path d="M275.266 597.597V552.12L318.347 527.533L359.531 552.12V597.597L318.347 622L275.266 597.597Z" fill="#2F2E41" fill-opacity="0.2"/>
<path d="M80.5195 467.459V354.648L186.787 293.657L288.374 354.648V467.459L186.787 527.991L80.5195 467.459Z" fill="#2F2E41" fill-opacity="0.2"/>
<path d="M145.123 353.731V240.92L251.391 179.929L352.977 240.92V353.731L251.391 414.263L145.123 353.731Z" stroke="#2F2E41" stroke-opacity="0.5" stroke-width="2"/>
<path d="M194.746 225.376V91.2891L314.417 24.0118L428.816 91.2891V225.376L314.417 297.325L194.746 225.376Z" stroke="#2F2E41" stroke-width="2"/>
<path d="M462.523 206.743V70.406L583.152 2L698.466 70.406V206.743L583.152 279.899L462.523 206.743Z" stroke="#2F2E41" stroke-width="2"/>
<path d="M311.781 508.336V332.403L464.96 244.13L611.391 332.403V508.336L464.96 602.74L311.781 508.336Z" stroke="#2F2E41" stroke-width="2" stroke-dasharray="4 4"/>
</svg>
